<svg id="Layer_1" data-name="Layer 1" xmlns="http://www.w3.org/2000/svg" viewBox="0 0 47.52 47.52"><defs><style>.cls-1{fill:#32b7e5;}.cls-2{fill:#fff;}</style></defs><title>afloat-logo</title><circle class="cls-1" cx="23.76" cy="23.76" r="23.76"/><path class="cls-2" d="M26.17,20.58a3.19,3.19,0,0,0-.63-2.31,2.65,2.65,0,0,0-1.76-.51,3.86,3.86,0,0,0-2.23.67c-.63.42-.12,1.14-.12,2.48a2.42,2.42,0,0,1-2.73,2.4,1.64,1.64,0,0,1-1.81-1.52,3.94,3.94,0,0,1,1.18-2.94,12.3,12.3,0,0,1,8.06-3.1c2.69,0,3.4.42,4.29,1.21a4.53,4.53,0,0,1,1.17,3.57l.09,8.36c0,2.19.16,2.86,1,2.86A1.54,1.54,0,0,0,33.86,31c.17-.26.29-.3.42-.21l.59.33c.17.09.29.21.12.59a4.62,4.62,0,0,1-4.24,2.86,3.93,3.93,0,0,1-4-2.57h-.21a9.7,9.7,0,0,1-3.61,2.19,9.28,9.28,0,0,1-3,.38c-1.47,0-2.77-1.6-2.77-3.87,0-1.85.88-3.78,3.61-5.12a39.57,39.57,0,0,0,5.42-2.78Zm0,3.9c-2.06,1.18-3.79,1.81-3.79,4.71,0,1.93.89,2.73,1.81,2.77a2.31,2.31,0,0,0,2-1.51Z" transform="translate(-1.24 -1.9)"/></svg>