<svg width="332" height="109" viewBox="0 0 332 109" fill="none" xmlns="http://www.w3.org/2000/svg">
<path d="M32.3355 95.5523C28.9867 99.1699 24.7234 101.816 19.9955 103.212C17.0384 104.011 13.9756 104.348 10.9155 104.212C5.6755 104.212 1.1355 99.9623 1.1355 92.0223C1.1355 85.4923 3.9755 79.1123 14.1855 74.5723C22.9755 70.3223 28.3655 68.0523 31.4855 65.7823V58.3623C31.2055 55.5223 30.9155 52.1223 29.2155 50.3623C27.7955 48.8123 25.2155 48.2423 22.1255 48.2423C19.1901 48.2579 16.3255 49.1454 13.8955 50.7923C11.8955 52.2123 13.3355 54.3423 13.3355 57.7923C13.3355 62.9023 10.7755 66.0223 4.8255 66.0223C4.1837 66.0523 3.54271 65.9479 2.94366 65.7156C2.3446 65.4834 1.80071 65.1285 1.34686 64.6737C0.893018 64.2189 0.53925 63.6743 0.308254 63.0748C0.0772568 62.4752 -0.0258676 61.834 0.00549628 61.1923C0.00549628 57.1923 2.2655 52.6823 6.5255 49.5623C13.094 44.428 21.1885 41.6336 29.5255 41.6223C37.4655 41.6223 40.0255 43.3223 42.5755 45.6223C45.6955 48.4623 45.9755 52.4323 45.9755 56.2623L46.2655 78.6723V85.4723C46.2655 93.1323 47.3955 95.4023 49.9455 95.4023C51.9455 95.4023 53.9455 94.2723 54.4855 93.1323C55.0555 92.2823 55.3355 92.2823 55.9055 92.5623L57.6055 93.7023C58.1755 93.9823 58.4555 94.5523 57.8955 95.9723C56.4755 98.5223 53.0655 104.192 44.8955 104.192C39.5055 104.192 34.9655 101.642 32.9855 95.5423L32.3355 95.5523ZM31.4855 71.0223C25.2455 75.0223 15.8855 77.4023 15.8855 87.7523C15.8855 93.5723 19.0055 96.4023 22.4055 96.4023C26.4055 96.1223 31.4855 92.1523 31.4855 89.6023V71.0223Z" fill="#15B4E9"/>
<path d="M83.1055 62.7923C83.1055 79.2423 82.9655 89.7923 83.2455 93.7123C83.3855 96.2623 84.2455 97.7123 85.9455 97.7123H90.4855C91.6155 97.7123 91.8955 97.9923 91.8955 98.9923V101.542C91.8955 102.392 91.6155 102.962 91.0455 102.962C90.1955 102.962 85.0455 102.532 74.8855 102.532C66.0855 102.532 59.8855 102.962 58.7155 102.962C57.8655 102.962 57.5755 102.672 57.5755 101.822V98.5623C57.5755 97.9923 57.8655 97.7123 58.9955 97.7123H64.9955C67.5455 97.7123 68.3955 96.0123 68.3955 93.1723L68.2555 50.3423H59.0355C58.4655 50.3423 58.1855 50.0623 58.1855 49.2123L59.0355 44.3923C59.1755 43.6823 59.6055 43.2523 60.7355 43.2523H68.2555V40.8423C68.2555 24.9623 72.0855 16.7323 78.0355 10.4923C85.4155 2.84227 93.6355 0.00227266 103.286 0.00227266C108.963 -0.0503339 114.612 0.810664 120.016 2.55227C122.286 3.40227 123.275 4.25227 123.135 5.96227C122.425 14.4623 122.426 39.9623 122.426 47.5123V67.9323C122.426 74.4523 122.425 88.9323 122.715 93.1723C122.855 96.2923 123.716 97.7123 126.256 97.7123H131.365C132.785 97.7123 133.066 97.9923 133.066 98.9923V101.542C133.066 102.392 132.785 102.962 132.215 102.962C131.365 102.962 125.406 102.532 116.046 102.532C106.686 102.532 101.586 102.962 100.446 102.962C99.5955 102.962 99.3155 102.392 99.3155 101.542V98.8423C99.3155 97.9923 99.5955 97.7123 101.016 97.7123H104.136C106.136 97.7123 107.676 96.5823 107.676 92.8923L107.536 50.3423H83.1055V62.7923ZM107.496 43.2223V23.7923C107.496 14.1523 106.646 10.7923 103.956 8.90227C101.971 7.62528 99.6442 6.98344 97.2855 7.06227C93.0355 7.06227 89.6255 8.19227 87.3655 11.3123C83.1055 16.9923 83.1055 28.0523 83.1055 40.3923V43.2223H107.496Z" fill="#15B4E9"/>
<path d="M187.346 50.0323C194.006 56.6923 197.126 64.0323 197.126 72.4423C196.954 80.464 193.824 88.1393 188.336 93.9923C182.526 100.522 174.016 104.202 164.506 104.202C155.576 104.202 147.916 101.652 141.506 93.9923C135.266 86.6223 133.846 80.6623 133.846 71.9923C133.846 65.1823 137.256 55.2623 145.756 48.4523C151.445 43.8591 158.586 41.4446 165.896 41.6423C169.847 41.5587 173.777 42.2569 177.458 43.6968C181.139 45.1366 184.499 47.2897 187.346 50.0323V50.0323ZM179.826 72.0323C179.826 56.4323 171.606 47.3623 165.076 47.3623C163.395 47.282 161.718 47.5841 160.171 48.2458C158.625 48.9075 157.248 49.9115 156.146 51.1823C151.746 56.1823 150.046 62.1023 150.046 72.4623C150.046 80.6823 150.616 86.0723 154.446 92.1723C156.856 96.0023 159.976 98.2723 165.646 98.2723C175.006 98.2523 179.826 86.4823 179.826 72.0123V72.0323Z" fill="#15B4E9"/>
<path d="M234.145 95.5523C230.797 99.1699 226.533 101.816 221.805 103.212C218.848 104.011 215.786 104.348 212.725 104.212C207.485 104.212 202.945 99.9623 202.945 92.0223C202.945 85.4923 205.785 79.1123 215.945 74.5723C224.735 70.3223 230.125 68.0523 233.245 65.7823V58.3623C232.955 55.5223 232.675 52.1223 230.975 50.3623C229.555 48.8123 226.975 48.2423 223.885 48.2423C220.95 48.2567 218.085 49.1443 215.656 50.7923C213.656 52.2123 215.085 54.3423 215.085 57.7923C215.085 62.9023 212.535 66.0223 206.585 66.0223C205.943 66.0522 205.302 65.9478 204.702 65.7156C204.103 65.4835 203.558 65.1287 203.104 64.6741C202.649 64.2195 202.294 63.675 202.062 63.0755C201.83 62.4759 201.726 61.8345 201.755 61.1923C201.755 57.1923 204.026 52.6823 208.286 49.5623C214.853 44.426 222.948 41.6313 231.286 41.6223C239.226 41.6223 241.786 43.3223 244.286 45.6223C247.406 48.4623 247.686 52.4323 247.686 56.2623L247.975 78.6723V85.4723C247.975 93.1323 249.106 95.4023 251.656 95.4023C253.656 95.4023 255.655 94.2723 256.195 93.1323C256.765 92.2823 257.046 92.2823 257.616 92.5623L259.315 93.7023C259.885 93.9823 260.165 94.5523 259.595 95.9723C258.185 98.5223 254.776 104.192 246.596 104.192C241.206 104.192 236.666 101.642 234.686 95.5423L234.145 95.5523ZM233.296 71.0223C227.056 75.0223 217.695 77.4023 217.695 87.7523C217.695 93.5723 220.815 96.4023 224.215 96.4023C228.215 96.1223 233.296 92.1523 233.296 89.6023V71.0223Z" fill="#15B4E9"/>
<path d="M260.945 51.1623C260.674 51.1985 260.398 51.1717 260.139 51.084C259.88 50.9963 259.645 50.8501 259.451 50.6566C259.258 50.4631 259.111 50.2277 259.024 49.9685C258.936 49.7093 258.909 49.4335 258.945 49.1623C258.945 48.0223 259.795 47.1623 261.635 46.4623C265.635 45.0523 277.945 34.5523 281.065 28.6023C281.252 28.1609 281.57 27.7877 281.976 27.5336C282.382 27.2795 282.857 27.1568 283.335 27.1823C284.465 27.1823 285.035 28.0323 285.035 29.1823L284.466 43.1823H303.185C304.035 43.1823 304.325 43.7523 304.185 44.3223L302.765 50.3223C302.625 50.8923 302.195 51.1723 301.345 51.1723H284.205C283.925 57.1723 283.775 63.9423 283.775 70.1723V82.9323C283.775 93.9923 288.455 96.2623 291.295 96.2623C294.129 96.2926 296.936 95.7128 299.525 94.5623C300.525 94.1323 300.935 94.1323 301.225 94.8423L302.075 96.5523C302.207 96.9028 302.222 97.2862 302.12 97.6461C302.017 98.0061 301.802 98.3237 301.505 98.5523C296.325 102.338 290.051 104.329 283.635 104.222C275.125 104.222 268.745 97.4223 268.745 91.4623C268.745 86.3523 269.175 75.0123 269.175 69.6223V51.1623H260.945Z" fill="#15B4E9"/>
<path d="M331.384 97.44C331.384 90.768 326.92 86.256 320.536 86.256C314.152 86.256 309.64 90.816 309.64 97.44C309.64 104.112 314.056 108.576 320.488 108.576C326.824 108.576 331.384 104.064 331.384 97.44ZM329.848 97.44C329.848 103.728 325.72 107.28 320.488 107.28C315.352 107.28 311.176 103.728 311.176 97.44C311.176 91.104 315.304 87.552 320.536 87.552C325.672 87.552 329.848 91.104 329.848 97.44ZM318.808 103.2V98.112H320.008L323.704 103.392L325.864 102.912L322.264 97.872C323.8 97.392 324.76 96.24 324.76 94.464C324.76 92.16 323.032 90.864 320.44 90.864H316.744V103.2H318.808ZM322.6 94.608C322.6 95.856 321.736 96.432 320.344 96.432H318.808V92.784H320.44C321.832 92.784 322.6 93.408 322.6 94.608Z" fill="#15B4E9"/>
</svg>
